<?xml version="1.0" encoding="UTF-8"?>
<svg id="Layer_1" data-name="Layer 1" xmlns="http://www.w3.org/2000/svg" viewBox="0 0 576.12 101.63">
  <defs>
    <style>
      .cls-1 {
        fill: #e2c700;
        stroke-width: 0px;
      }
    </style>
  </defs>
  <path class="cls-1" d="m57.9,2.94l12.34,24.99c.77,1.56,2.26,2.64,3.98,2.89l27.58,4.01c4.33.63,6.06,5.95,2.93,9.01l-19.96,19.45c-1.25,1.21-1.81,2.96-1.52,4.68l4.71,27.47c.74,4.32-3.79,7.61-7.66,5.57l-24.67-12.97c-1.54-.81-3.38-.81-4.92,0l-24.67,12.97c-3.88,2.04-8.4-1.25-7.66-5.57l4.71-27.47c.29-1.71-.27-3.46-1.52-4.68L1.6,43.85c-3.14-3.06-1.41-8.38,2.93-9.01l27.58-4.01c1.72-.25,3.21-1.33,3.98-2.89L48.42,2.94c1.94-3.93,7.54-3.93,9.47,0Z"/>
  <path class="cls-1" d="m175.35,2.94l12.34,24.99c.77,1.56,2.26,2.64,3.98,2.89l27.58,4.01c4.33.63,6.06,5.95,2.93,9.01l-19.96,19.45c-1.25,1.21-1.81,2.96-1.52,4.68l4.71,27.47c.74,4.32-3.79,7.61-7.66,5.57l-24.67-12.97c-1.54-.81-3.38-.81-4.92,0l-24.67,12.97c-3.88,2.04-8.4-1.25-7.66-5.57l4.71-27.47c.29-1.71-.27-3.46-1.52-4.68l-19.96-19.45c-3.14-3.06-1.41-8.38,2.93-9.01l27.58-4.01c1.72-.25,3.21-1.33,3.98-2.89l12.34-24.99c1.94-3.93,7.54-3.93,9.47,0Z"/>
  <path class="cls-1" d="m292.8,2.94l12.34,24.99c.77,1.56,2.26,2.64,3.98,2.89l27.58,4.01c4.33.63,6.06,5.95,2.93,9.01l-19.96,19.45c-1.25,1.21-1.81,2.96-1.52,4.68l4.71,27.47c.74,4.32-3.79,7.61-7.66,5.57l-24.67-12.97c-1.54-.81-3.38-.81-4.92,0l-24.67,12.97c-3.88,2.04-8.4-1.25-7.66-5.57l4.71-27.47c.29-1.71-.27-3.46-1.52-4.68l-19.96-19.45c-3.14-3.06-1.41-8.38,2.93-9.01l27.58-4.01c1.72-.25,3.21-1.33,3.98-2.89l12.34-24.99c1.94-3.93,7.54-3.93,9.47,0Z"/>
  <path class="cls-1" d="m410.25,2.94l12.34,24.99c.77,1.56,2.26,2.64,3.98,2.89l27.58,4.01c4.33.63,6.06,5.95,2.93,9.01l-19.96,19.45c-1.25,1.21-1.81,2.96-1.52,4.68l4.71,27.47c.74,4.32-3.79,7.61-7.66,5.57l-24.67-12.97c-1.54-.81-3.38-.81-4.92,0l-24.67,12.97c-3.88,2.04-8.4-1.25-7.66-5.57l4.71-27.47c.29-1.71-.27-3.46-1.52-4.68l-19.96-19.45c-3.14-3.06-1.41-8.38,2.93-9.01l27.58-4.01c1.72-.25,3.21-1.33,3.98-2.89l12.34-24.99c1.94-3.93,7.54-3.93,9.47,0Z"/>
  <path class="cls-1" d="m527.7,2.94l12.34,24.99c.77,1.56,2.26,2.64,3.98,2.89l27.58,4.01c4.33.63,6.06,5.95,2.93,9.01l-19.96,19.45c-1.25,1.21-1.81,2.96-1.52,4.68l4.71,27.47c.74,4.32-3.79,7.61-7.66,5.57l-24.67-12.97c-1.54-.81-3.38-.81-4.92,0l-24.67,12.97c-3.88,2.04-8.4-1.25-7.66-5.57l4.71-27.47c.29-1.71-.27-3.46-1.52-4.68l-19.96-19.45c-3.14-3.06-1.41-8.38,2.93-9.01l27.58-4.01c1.72-.25,3.21-1.33,3.98-2.89l12.34-24.99c1.94-3.93,7.54-3.93,9.47,0Z"/>
</svg>