<?xml version="1.0" encoding="UTF-8"?>
<svg id="Layer_1" data-name="Layer 1" xmlns="http://www.w3.org/2000/svg" viewBox="0 0 539.5 427.79">
  <defs>
    <style>
      .cls-1 {
        stroke-width: 0px;
      }
    </style>
  </defs>
  <path class="cls-1" d="m331.98,207.24c2.03.5,9.9-4.26,11.36-7.25,2.3-4.7,1.76-9.94,2.47-14.95.77-5.41-.84-9.78-5.82-11.97-4.79-2.1-9.85-2.02-14.66.74-6.84,3.91-6.22,10.69-6.84,16.82.14,1.38.27,2.54.36,3.69.59,7.45,3.79,10.6,13.13,12.91Zm-7.8-19.64c1.04-4.08,2.7-7.38,6.36-9.37,5.15-2.8,9.54.06,9.52,6.41-.62,2.83,1.99,5.86-.51,9.39-4.54,6.43-9.83,6.14-14.29,2.36-3.38-2.86-1.92-5.49-1.08-8.79Z"/>
  <path class="cls-1" d="m184.79,110.7c-4.94-2.59-10.4-3.91-15.52-6.15-5.31-2.33-11.02-4.52-16.87-5.71-4.91-.99-7.39.83-7.36,5.14-.07,1.73-.01,3.21,2.21,3.79,8.78,2.3,16.64,6.9,25.05,10.15,8.06,3.11,16.66,5.87,21.44,14.23,1.14,1.99,2.51,5.2,5.49,3.14,2.54-1.76,5.16-4.17,3.42-8.24-3.51-8.19-10.49-12.48-17.87-16.35Z"/>
  <path class="cls-1" d="m525.61,219.34c-3.78-.96-7.76-1.1-11.65-.93-3.69.16-7.43.64-10.99,1.66-2.41.69-4.69,1.63-6.84,2.84-.03-.27-.06-.56-.07-.88-.09-3.42-2.18-5.84-4.5-8.03-.34-.32-.63-.63-.86-.92,4.58-5.31,10.25-9.4,16.32-12.86,3.12-1.77,6.33-3.39,9.57-4.94,3.34-1.6,6.95-3.24,10.73-3.12,2.66.08,5.97,1.37,7.03,4.03.5,1.25,1.67,2.13,3.08,1.75,1.19-.33,2.25-1.81,1.75-3.08-1.42-3.56-4.3-5.96-7.94-7.08-4.01-1.23-8.32-.48-12.16.99-.18.07-.36.15-.54.22-9.1,2.96-17.34,7.66-24.47,13.94-1.51,1.22-2.95,2.51-4.32,3.87-4.07,3.07-8.23,3.28-13.36,3.2-13.39-.21-26.44-3.44-40.1-2.24-14.29,1.25-28.83,1.06-43.26,1.21-7.31.08-7.24,0-7.26-7.4-.03-10.9-.08-21.8-.16-32.7-.05-6.85-3.53-23.1,2.65-27.71,2.33-1.74,5.26-2.39,8.08-3.1,13.59-3.39,26.66-8.86,38.64-16.13,9.04-5.48,17.36-10.64,24.61-18.43,7.43-7.98,13.65-17.03,18.99-26.52,4.94-8.77,9.14-17.94,13.06-27.2,3.64-8.61,8.2-17.39,9.15-26.8.47-4.63-1.03-6.08-5.41-4.56-6.94,2.43-13.59,5.7-20.51,8.17-8.73,3.12-16.19,8.72-25.08,11.73-6.45,2.19-12.85,5.01-19.26,7.56-12.6,5.02-25.54,8.91-38.98,11.09-4.45.72-6.78-.54-7.34-5.17-1.86-15.31-8.13-28.49-19-39.56-2-2.04-2.93-2.37-5.15-.48-4.66,3.96-7.46,9.2-10.96,14.77-.9-1.02-1.69-1.67-2.16-2.5-3.87-6.8-8.91-12.73-13.87-18.72-1.68-2.03-3.55-3.33-6.27-3.57-3.44-.3-6.85-1.02-10.29-1.32-17.36-1.47-34.4.84-51.19,5-24.07,5.96-46.46,16.2-68.58,27.2-17.95,8.93-34.06,20.53-49.85,32.65-3.35,2.58-6.1,6.33-6.33,10.9-.19,3.78-2.63,4.17-5.35,4.41-1.8.16-3.65-.14-5.43.11-8.37,1.17-10.01,5.58-5.57,12.75,7.48,12.09,24.57,27.23,19.8,43.01-1.34,4.42-4.09,8.3-7.31,11.6-12.6,12.9-30.75,18.32-45.26,28.52-13.4,9.42-26.5,19.67-40.83,27.67-8.37,4.67-16.79,9.25-25.21,13.82-7.57,4.11-15.23,9.52-23.57,11.85-.93.26-2.01.83-1.78,2.04.25,1.28.62,2.73,2.08,3.19,13.09,4.15,25.24,7.28,38.97,8.85,42.75,4.88,82.17-4.09,122.75-16.88,5.01-1.59,5.89-1.02,6.04,4.1.28,9.5.26,19.01.49,28.52.36,14.8.06,29.63-.27,44.46-.58,25.99-.09,52.02-1,78-.48,13.86.72,27.76-1.01,41.59-.29,2.31.59,3.89,3.25,3.94,2.54.05,5.19.34,5.7-3.18.57-3.95-.21-7.92-.22-11.88-.03-9.95.82-19.86.58-29.83-.28-11.82.91-23.66.59-35.53-.26-9.7.37-19.44-.33-29.1-.59-8.17,1.45-16.07,1.22-24.12-.55-19.87.96-39.77-.09-59.58-.7-13.18,8.7-15.15,19.39-19,7.25-2.61,24.22-13.99,31.16-7.39,4.9,4.66,12.02,4.74,16.81.1,3.14-3.04,5.84-6.13,5.19-10.9-1.16-8.48,14.79-14.15,20.79-17.72,18.31-10.9,36.5-20.75,56.43-28.29,8.5-3.21,17.15-6.21,26.02-8.23,5.54-1.26,13.71-3.46,19.22-.9,2.53,1.17,3.97,2.95,3.97,5.83-.17,10.87-.58,21.75-.39,32.61.15,8.19-1.17,16.42.65,24.58.52,2.32-.57,3.57-3.22,3.74-13.1.85-26.18,1.88-39.27,2.82-3.62.26-7.35-1.01-10.86.58-1.94.88-5.71.15-5.29,3.27.37,2.75,3.67,3.4,6.36,3.69.82.09,1.66-.03,2.49,0,14.81.44,29.48-1.94,44.31-1.92,14.08.03,28.14-1.94,42.23-2.24,6.37-.14,12.85.05,19.39.61-2.92,2.06-5.94,3.63-8.97,5.2-4.45,2.31-7.57,5.8-9.24,10.55-.42,1.18-.27,2.4.7,3.22,1.02.85,1.79-.08,2.58-.67,3.18-2.39,6.35-4.8,9.59-7.12,8.3-5.94,17.72-9.14,27.63-11.05,1.23-.24,2.97-.61,3.62.75.37.76-.23,2.22-.77,3.15-1.44,2.47-2.46,5.02-2.85,7.88-.27,2.04-1.32,3.69-3.24,4.76-8.23,4.59-14.85,11.26-21.41,17.78-5.44,5.41-11.41,10.62-14.6,18-1.14,2.64-3.01,5.99-.17,7.53,2.48,1.34,4.48-2.05,5.91-4.25,7.79-11.97,18.19-21.39,28.94-30.61,4.3-3.69,6.29-.96,9.03,1.38,3.45,2.94.31,4.7-1.27,6.44-8.61,9.49-16.74,19.33-23.93,29.97-4.45,6.58-5.57,13.62-4.91,21.27.18,2.04.52,3.67,2.79,4,2.68.4,2.76-1.78,3.24-3.49,2.48-8.94,5.49-17.63,11.08-25.21,1.67-2.27,3.06-4.74,4.57-7.12,4.58-7.19,10.56-13.24,16.24-19.51,2.13-2.36,5.06-2.09,7.91-1.21,1.62.5,2.57,1.44,2.44,3.25-.63,9.01-1.26,18.12-3.85,26.74-3.52,11.74-9.24,22.37-16.77,32.33-12.21,16.16-28.25,27.74-44.73,38.4-25.81,16.71-55.86,22.64-85.28,29.62-12.17,2.89-24.83,2.11-37.22,3.41-2.75.29-7.19-.73-7.01,4.04.17,4.73,4.48,3.2,7.32,3.69.64.11,1.33.01,1.99,0,12.11-.4,24.15-.49,36.2-2.9,10.15-2.03,20.22-4.28,30.16-7.02,8-2.21,15.69-5.18,23.23-8.52.29,4.03.87,8.03,1.71,11.98.15,1.67.35,3.33.62,4.98-.07,0-.14.01-.2.02.64,6.86,1.3,13.72,1.89,20.59.18,2.16,1.63,2.76,3.36,2.87,1.45.09,2.06-.96,1.95-2.3-.46-5.79-.94-11.57-1.44-17.35.17-.29.28-.65.25-1.08-.44-7.38-1.42-14.73-2.91-21.98,0-.03-.02-.06-.03-.09,4.95-2.3,9.85-4.72,14.75-7.15,11.26-5.59,22.59-11.25,32.44-18.9,8.77-6.8,17.61-13.59,24.71-22.7,9.54-12.23,17.3-24.92,21.39-39.92,2.94-10.79,4.76-21.67,5.2-32.85.29-7.24,6.42-11.27,12.26-8.59,10.31,4.74,16.21,13.34,20.42,23.4,1.73,4.13,3.33,8.3,5.52,13.75.36-6.15-1.66-13.09-5.1-19.53.12-.25.14-.55-.02-.87-1.97-3.8-4.16-7.49-6.63-10.99-2.25-3.19-4.83-5.91-8.29-7.79-2.81-1.53-5.83-2.63-8.94-3.34-.05-.23-.08-.47-.08-.75.06-2.72,2.44-4.22,4.76-5.31,6.37-3.03,13.1-3.48,20-2.6,5.3.67,9.82,2.57,12.86,6.93.48.95.82,1.98.92,3.05.12,1.34,1.06,2.5,2.5,2.5,1.26,0,2.62-1.15,2.5-2.5-.68-7.53-6.85-12.81-13.88-14.59Zm-310.6-80.51c-.59.14-1.18.3-1.77.45-3.08.33-6.1,1.21-8.97,2.38-1,.4-1.99.84-2.97,1.28-5.08,1.82-10.06,3.93-14.9,6.33-5.61,2.78-11,5.97-16.16,9.5-4.44-9.96-10.05-19.34-14.24-29.44-5.63-13.57-14.41-25.16-23.83-36.29-1.8-2.12-3.53-4.31-5.59-6.83,6.76-1.45,12.89.44,18.97,1.17,6.19.74,12.56,2.01,18.21,4.49,6.02,2.64,12.34,4.28,18.41,6.71,10.4,4.16,20.86,7.91,29.63,15.2,4.23,3.52,7.47,7.83,10.43,12.33.57.87.96,1.87,1.67,2.36.03.22.09.45.21.67.72,1.35,1.44,2.7,2.15,4.05.18.34.43.57.72.73-.13.57,0,1.2.52,1.74.25.26.51.51.76.77-4.44.58-8.87,1.32-13.27,2.38Zm30.84,59.45c-.96,4.68-3.3,6.9-9.03,7.06-1.28-.11-3.21-1.27-3.91-2.94-.9-2.16,1.58-2.37,2.96-3.13,2.03-1.1,4.08-2.2,5.96-3.52,1.05-.73,1.96-1.35,3.04-.44.86.73,1.29,1.5.99,2.97Zm132.98-112.21c-4.19-8.81-7.83-17.16-10.99-25.75-2.69-7.29-7.57-13.48-11.34-20.25-.95-1.71-1.63-3.53-1.28-5.11,1.18-5.22,2.89-10.31,5.76-14.89,1-1.6,1.93-1.36,2.76.41,2.55,5.44,5.27,10.8,7.85,16.22,5.66,11.89,7.05,24.71,7.87,37.6.24,3.66,2.19,7.45-.64,11.76Z"/>
</svg>