<?xml version="1.0" encoding="UTF-8"?>
<svg id="Layer_1" data-name="Layer 1" xmlns="http://www.w3.org/2000/svg" viewBox="0 0 460 512">
  <defs>
    <style>
      .cls-1, .cls-2 {
        stroke-width: 0px;
      }

      .cls-3 {
        letter-spacing: 2.12em;
      }

      .cls-4 {
        stroke: #231f20;
        stroke-miterlimit: 10;
        stroke-width: .25px;
      }

      .cls-4, .cls-5, .cls-6 {
        fill: #231f20;
      }

      .cls-5 {
        font-size: 17.86px;
      }

      .cls-5, .cls-6 {
        font-family: Baskerville-BT, 'Baskerville BT';
      }

      .cls-7 {
        letter-spacing: 2.21em;
      }

      .cls-2 {
        fill: #f19043;
      }

      .cls-6 {
        font-size: 62.53px;
        letter-spacing: .08em;
      }

      .cls-8 {
        letter-spacing: 2.18em;
      }
    </style>
  </defs>
  <rect class="cls-2" x="-21.22" y="-25.98" width="502.43" height="563.95"/>
  <g>
    <text class="cls-6" transform="translate(70.81 437.74)"><tspan x="0" y="0">NAMDOO</tspan></text>
    <text class="cls-5" transform="translate(74.58 466.29)"><tspan class="cls-3" x="0" y="0">F</tspan><tspan class="cls-7" x="48.7" y="0">A</tspan><tspan class="cls-8" x="99.97" y="0">SHION</tspan></text>
    <line class="cls-4" x1="75.53" y1="444.49" x2="396.78" y2="444.49"/>
  </g>
  <g>
    <path class="cls-1" d="m273.61,196.95c1.42.35,6.93-2.98,7.96-5.08,1.61-3.29,1.23-6.96,1.73-10.47.54-3.79-.59-6.86-4.08-8.39-3.36-1.47-6.9-1.41-10.27.52-4.79,2.74-4.36,7.49-4.8,11.79.1.97.19,1.78.26,2.59.41,5.22,2.66,7.43,9.2,9.05Zm-5.47-13.76c.73-2.86,1.89-5.17,4.46-6.57,3.61-1.96,6.68.04,6.67,4.49-.43,1.98,1.39,4.1-.36,6.58-3.18,4.51-6.89,4.3-10.02,1.66-2.37-2.01-1.35-3.84-.76-6.16Z"/>
    <path class="cls-1" d="m170.46,129.3c-3.46-1.81-7.29-2.74-10.87-4.31-3.72-1.63-7.72-3.17-11.82-4-3.44-.7-5.18.58-5.16,3.6-.05,1.21,0,2.25,1.55,2.66,6.15,1.61,11.66,4.84,17.56,7.12,5.65,2.18,11.68,4.11,15.03,9.97.8,1.4,1.76,3.64,3.84,2.2,1.78-1.23,3.62-2.92,2.4-5.77-2.46-5.74-7.35-8.75-12.52-11.46Z"/>
    <path class="cls-1" d="m409.29,205.43c-2.65-.67-5.44-.77-8.16-.65-2.59.11-5.2.45-7.7,1.16-1.69.48-3.29,1.14-4.8,1.99-.02-.19-.04-.39-.05-.62-.06-2.4-1.53-4.09-3.15-5.63-.24-.23-.44-.44-.61-.65,3.21-3.72,7.18-6.59,11.43-9.01,2.19-1.24,4.44-2.38,6.7-3.46,2.34-1.12,4.87-2.27,7.52-2.19,1.86.06,4.18.96,4.92,2.83.35.88,1.17,1.49,2.16,1.22.83-.23,1.58-1.27,1.22-2.16-.99-2.49-3.01-4.18-5.57-4.96-2.81-.86-5.83-.33-8.52.69-.13.05-.25.11-.38.16-6.37,2.08-12.15,5.37-17.14,9.77-1.06.85-2.07,1.76-3.03,2.71-2.85,2.15-5.77,2.3-9.36,2.24-9.38-.15-18.52-2.41-28.1-1.57-10.02.88-20.2.74-30.31.85-5.12.06-5.07,0-5.09-5.19-.02-7.64-.06-15.28-.11-22.91-.04-4.8-2.48-16.19,1.85-19.41,1.63-1.22,3.69-1.68,5.66-2.17,9.53-2.38,18.68-6.21,27.08-11.3,6.34-3.84,12.16-7.46,17.24-12.91,5.21-5.59,9.56-11.94,13.31-18.58,3.46-6.15,6.41-12.57,9.15-19.06,2.55-6.04,5.75-12.19,6.41-18.78.33-3.24-.72-4.26-3.79-3.19-4.86,1.7-9.52,3.99-14.37,5.73-6.12,2.19-11.35,6.11-17.57,8.22-4.52,1.53-9.01,3.51-13.5,5.3-8.83,3.52-17.9,6.24-27.32,7.77-3.12.51-4.75-.38-5.14-3.62-1.3-10.73-5.7-19.97-13.31-27.72-1.4-1.43-2.05-1.66-3.61-.34-3.27,2.77-5.23,6.44-7.68,10.35-.63-.71-1.19-1.17-1.52-1.75-2.71-4.77-6.24-8.92-9.72-13.11-1.18-1.42-2.49-2.34-4.39-2.5-2.41-.21-4.8-.72-7.21-.92-12.17-1.03-24.11.59-35.87,3.5-16.87,4.18-32.55,11.35-48.06,19.06-12.58,6.25-23.87,14.38-34.93,22.88-2.35,1.8-4.28,4.44-4.44,7.64-.13,2.65-1.84,2.92-3.75,3.09-1.26.11-2.56-.1-3.8.08-5.87.82-7.02,3.91-3.91,8.94,5.24,8.47,17.22,19.08,13.88,30.14-.94,3.1-2.86,5.82-5.12,8.13-8.83,9.04-21.55,12.84-31.71,19.99-9.39,6.6-18.57,13.79-28.61,19.39-5.86,3.27-11.77,6.48-17.67,9.69-5.3,2.88-10.67,6.67-16.52,8.3-.65.18-1.41.58-1.25,1.43.17.9.44,1.91,1.46,2.24,9.17,2.9,17.69,5.1,27.31,6.2,29.95,3.42,57.58-2.86,86.01-11.83,3.51-1.12,4.13-.71,4.23,2.87.19,6.66.18,13.32.35,19.98.25,10.37.05,20.76-.19,31.15-.41,18.21-.06,36.45-.7,54.66-.34,9.71.5,19.45-.71,29.14-.2,1.62.41,2.73,2.27,2.76,1.78.03,3.64.24,3.99-2.23.4-2.77-.15-5.55-.16-8.32-.02-6.97.58-13.91.41-20.9-.2-8.28.63-16.58.41-24.9-.18-6.8.26-13.62-.23-20.39-.41-5.72,1.01-11.26.86-16.9-.39-13.93.67-27.87-.06-41.75-.49-9.24,6.1-10.61,13.59-13.31,5.08-1.83,16.97-9.81,21.83-5.18,3.44,3.27,8.42,3.32,11.78.07,2.2-2.13,4.09-4.29,3.64-7.64-.81-5.94,10.37-9.91,14.57-12.42,12.83-7.64,25.58-14.54,39.55-19.83,5.95-2.25,12.02-4.35,18.23-5.77,3.88-.88,9.61-2.42,13.47-.63,1.77.82,2.79,2.06,2.79,4.08-.12,7.62-.41,15.24-.27,22.85.1,5.74-.82,11.5.45,17.23.36,1.63-.4,2.5-2.26,2.62-9.18.6-18.35,1.32-27.52,1.98-2.54.18-5.15-.71-7.61.41-1.36.62-4,.1-3.71,2.29.26,1.93,2.57,2.38,4.46,2.59.57.06,1.16-.02,1.75,0,10.38.31,20.66-1.36,31.05-1.34,9.86.02,19.72-1.36,29.59-1.57,4.46-.1,9,.03,13.59.43-2.04,1.44-4.16,2.54-6.28,3.64-3.12,1.62-5.31,4.07-6.48,7.39-.29.83-.19,1.68.49,2.25.71.6,1.25-.06,1.81-.47,2.23-1.67,4.45-3.36,6.72-4.99,5.82-4.16,12.42-6.41,19.36-7.74.86-.17,2.08-.42,2.54.52.26.53-.16,1.56-.54,2.21-1.01,1.73-1.72,3.52-1.99,5.52-.19,1.43-.92,2.59-2.27,3.34-5.77,3.22-10.41,7.89-15,12.46-3.81,3.79-8,7.44-10.23,12.61-.8,1.85-2.11,4.2-.12,5.28,1.74.94,3.14-1.44,4.14-2.98,5.46-8.39,12.75-14.99,20.28-21.45,3.02-2.59,4.41-.67,6.33.97,2.41,2.06.22,3.29-.89,4.51-6.03,6.65-11.73,13.54-16.77,21-3.12,4.61-3.91,9.54-3.44,14.9.12,1.43.37,2.57,1.95,2.8,1.88.28,1.93-1.25,2.27-2.45,1.74-6.26,3.85-12.35,7.76-17.67,1.17-1.59,2.14-3.32,3.2-4.99,3.21-5.04,7.4-9.28,11.38-13.67,1.49-1.65,3.54-1.47,5.54-.85,1.14.35,1.8,1.01,1.71,2.28-.44,6.31-.88,12.69-2.7,18.74-2.47,8.23-6.47,15.67-11.75,22.66-8.55,11.32-19.8,19.44-31.34,26.91-18.09,11.71-39.14,15.87-59.76,20.76-8.53,2.02-17.4,1.48-26.08,2.39-1.93.2-5.04-.51-4.91,2.83.12,3.31,3.14,2.24,5.13,2.59.45.08.93,0,1.4,0,8.48-.28,16.92-.34,25.36-2.03,7.11-1.42,14.17-3,21.14-4.92,5.6-1.55,10.99-3.63,16.28-5.97.2,2.82.61,5.63,1.2,8.4.1,1.17.25,2.33.43,3.49-.05,0-.1,0-.14.01.45,4.81.91,9.61,1.32,14.43.13,1.51,1.14,1.93,2.36,2.01,1.02.06,1.44-.67,1.37-1.61-.33-4.05-.66-8.11-1.01-12.16.12-.2.19-.45.17-.76-.31-5.17-.99-10.33-2.04-15.4,0-.02-.02-.04-.02-.06,3.47-1.61,6.9-3.31,10.34-5.01,7.89-3.92,15.83-7.88,22.73-13.24,6.15-4.77,12.34-9.53,17.32-15.91,6.69-8.57,12.12-17.47,14.99-27.97,2.06-7.56,3.34-15.18,3.65-23.02.2-5.08,4.5-7.9,8.59-6.02,7.23,3.32,11.36,9.35,14.31,16.39,1.21,2.89,2.34,5.82,3.87,9.64.25-4.31-1.16-9.18-3.58-13.69.08-.18.1-.39-.01-.61-1.38-2.67-2.92-5.25-4.65-7.7-1.58-2.24-3.38-4.14-5.81-5.46-1.97-1.07-4.08-1.84-6.26-2.34-.04-.16-.06-.33-.06-.52.05-1.91,1.71-2.95,3.33-3.72,4.47-2.12,9.18-2.44,14.01-1.82,3.72.47,6.88,1.8,9.01,4.86.34.67.58,1.38.64,2.14.09.94.74,1.75,1.75,1.75.88,0,1.84-.8,1.75-1.75-.48-5.28-4.8-8.97-9.73-10.22Zm-217.65-56.42c-.41.1-.83.21-1.24.32-2.16.23-4.27.85-6.29,1.67-.7.28-1.39.59-2.08.9-3.56,1.28-7.05,2.75-10.44,4.44-3.93,1.95-7.71,4.18-11.32,6.66-3.11-6.98-7.04-13.55-9.98-20.63-3.94-9.51-10.1-17.63-16.7-25.43-1.26-1.49-2.47-3.02-3.92-4.78,4.74-1.02,9.03.31,13.29.82,4.33.52,8.8,1.41,12.76,3.15,4.22,1.85,8.65,3,12.9,4.7,7.29,2.91,14.62,5.54,20.76,10.65,2.97,2.46,5.23,5.48,7.31,8.64.4.61.67,1.31,1.17,1.65.02.16.07.31.15.47.5.95,1.01,1.89,1.51,2.84.13.24.3.4.51.51-.09.4,0,.84.36,1.22.18.18.36.36.53.54-3.11.41-6.22.93-9.3,1.67Zm21.61,41.66c-.67,3.28-2.31,4.83-6.33,4.94-.89-.08-2.25-.89-2.74-2.06-.63-1.51,1.1-1.66,2.07-2.19,1.42-.77,2.86-1.54,4.18-2.47.73-.51,1.37-.95,2.13-.31.6.51.9,1.05.69,2.08Zm93.18-78.63c-2.94-6.17-5.48-12.03-7.7-18.04-1.89-5.11-5.31-9.45-7.94-14.19-.67-1.2-1.14-2.48-.89-3.58.83-3.65,2.02-7.23,4.04-10.44.7-1.12,1.35-.95,1.93.29,1.79,3.81,3.69,7.57,5.5,11.37,3.97,8.33,4.94,17.31,5.52,26.35.16,2.56,1.53,5.22-.45,8.24Z"/>
  </g>
</svg>