<?xml version="1.0" encoding="UTF-8"?>
<svg id="Layer_1" data-name="Layer 1" xmlns="http://www.w3.org/2000/svg" viewBox="0 0 40 40">
  <defs>
    <style>
      .cls-1 {
        stroke-width: 0px;
      }
    </style>
  </defs>
  <path class="cls-1" d="m26.24,7.66c2.07,0,4.01.8,5.47,2.26,1.48,1.47,2.29,3.43,2.29,5.52,0,2.08-.81,4.04-2.29,5.52-.08.08-.21.18-.37.3-.1.08-.2.15-.3.23l-.08.07-.08.08-10.88,10.87-10.88-10.87-.08-.08-.08-.07c-.1-.08-.2-.15-.3-.23-.15-.12-.28-.22-.37-.3-1.48-1.47-2.29-3.43-2.29-5.52,0-2.08.81-4.04,2.29-5.52,1.46-1.46,3.4-2.26,5.47-2.26,1.81,0,3.57.63,4.98,1.77l1.26,1.03,1.26-1.03c1.4-1.14,3.17-1.77,4.98-1.77m0-2c-2.21,0-4.43.74-6.24,2.22-1.81-1.48-4.03-2.22-6.24-2.22-2.49,0-4.98.94-6.88,2.85-3.83,3.83-3.83,10.04,0,13.87.26.26.55.45.83.67l12.3,12.28,12.3-12.28c.28-.22.57-.42.83-.67,3.83-3.83,3.83-10.04,0-13.87-1.91-1.9-4.39-2.85-6.88-2.85h0Z"/>
</svg>