<?xml version="1.0" encoding="UTF-8"?>
<svg id="Layer_1" data-name="Layer 1" xmlns="http://www.w3.org/2000/svg" viewBox="0 0 40 40">
  <defs>
    <style>
      .cls-1 {
        stroke-width: 0px;
      }
    </style>
  </defs>
  <path class="cls-1" d="m22.29,20.54c2.73-.95,4.71-3.55,4.71-6.61,0-3.86-3.14-7-7-7s-7,3.14-7,7c0,3.06,1.97,5.65,4.71,6.61-7.54,1.12-13.36,7.62-13.36,15.46h2c0-7.53,6.12-13.65,13.65-13.65s13.65,6.12,13.65,13.65h2c0-7.85-5.81-14.35-13.36-15.46Zm-7.29-6.61c0-2.76,2.24-5,5-5s5,2.24,5,5-2.24,5-5,5-5-2.24-5-5Z"/>
</svg>