<?xml version="1.0" encoding="UTF-8"?>
<svg id="Layer_1" data-name="Layer 1" xmlns="http://www.w3.org/2000/svg" viewBox="0 0 615.13 201.26">
  <defs>
    <style>
      .cls-1 {
        fill: none;
        stroke: #fff;
        stroke-miterlimit: 10;
        stroke-width: 2px;
      }

      .cls-2 {
        fill: #fff;
        stroke-width: 0px;
      }
    </style>
  </defs>
  <g>
    <path class="cls-1" d="m30.4,179.94V33.84h44.49l12.29,89.07,12.2-89.07h44.91v146.09h-26.73v-105.25l-16.77,105.25h-26.23l-17.76-105.25v105.25h-26.4Z"/>
    <path class="cls-1" d="m202.3,181.26c-11.68,0-20.6-3.53-26.77-10.58-6.17-7.06-9.26-17.25-9.26-30.59v-69.39c0-12.51,3.06-22,9.17-28.47,6.11-6.47,15.07-9.71,26.85-9.71s20.74,3.24,26.85,9.71c6.11,6.47,9.17,15.97,9.17,28.47v69.39c0,13.34-3.09,23.53-9.26,30.59-6.17,7.06-15.09,10.58-26.77,10.58Zm.25-26.89c4.43,0,6.64-4.29,6.64-12.87v-71.3c0-7.19-2.16-10.79-6.47-10.79-4.87,0-7.3,3.68-7.3,11.04v71.22c0,4.54.55,7.79,1.66,9.75,1.11,1.96,2.93,2.95,5.48,2.95Z"/>
    <path class="cls-1" d="m260.31,179.94V33.84h40.18c10.51,0,18.43,2.92,23.74,8.76,5.31,5.84,7.97,14.37,7.97,25.61v68.4c0,13.83-2.42,24.52-7.26,32.04-4.84,7.53-13.32,11.29-25.44,11.29h-39.18Zm29.38-25.82h5.06c5.37,0,8.05-2.6,8.05-7.8v-75.37c0-4.87-.65-8.01-1.95-9.42-1.3-1.41-3.94-2.12-7.93-2.12h-3.24v94.71Z"/>
    <path class="cls-1" d="m354.35,179.94V33.84h58.44v28.22h-28.72v28.47h27.56v27.48h-27.56v33.45h30.63v28.47h-60.35Z"/>
    <path class="cls-1" d="m434.53,179.94V33.84h44.82c7.47,0,13.12,1.7,16.93,5.1s6.38,8.16,7.68,14.28c1.3,6.12,1.95,13.3,1.95,21.54s-1.01,14.33-3.03,19.09c-2.02,4.76-5.82,8.05-11.41,9.88,4.59.94,7.82,3.22,9.67,6.85,1.85,3.62,2.78,8.31,2.78,14.07v55.28h-28.8v-57.19c0-4.26-.87-6.9-2.61-7.93-1.74-1.02-4.55-1.54-8.43-1.54v66.66h-29.55Zm29.72-91.97h7.06c4.04,0,6.06-4.4,6.06-13.2,0-5.7-.44-9.43-1.33-11.21-.89-1.77-2.55-2.66-4.98-2.66h-6.81v27.06Z"/>
    <path class="cls-1" d="m525.74,179.94V33.84h30.05l13.45,69.98V33.84h28.22v146.09h-28.55l-14.61-73.05v73.05h-28.55Z"/>
  </g>
  <g>
    <path class="cls-2" d="m17.67,167.41V21.32h44.49l12.29,89.07,12.2-89.07h44.91v146.09h-26.73V62.16l-16.77,105.25h-26.23l-17.76-105.25v105.25h-26.4Z"/>
    <path class="cls-2" d="m189.57,168.74c-11.68,0-20.6-3.53-26.77-10.58-6.17-7.06-9.26-17.25-9.26-30.59V58.18c0-12.51,3.06-22,9.17-28.47,6.11-6.47,15.07-9.71,26.85-9.71s20.74,3.24,26.85,9.71c6.11,6.47,9.17,15.97,9.17,28.47v69.39c0,13.34-3.09,23.53-9.26,30.59-6.17,7.06-15.09,10.58-26.77,10.58Zm.25-26.89c4.43,0,6.64-4.29,6.64-12.87V57.68c0-7.19-2.16-10.79-6.47-10.79-4.87,0-7.3,3.68-7.3,11.04v71.22c0,4.54.55,7.79,1.66,9.75,1.11,1.96,2.93,2.95,5.48,2.95Z"/>
    <path class="cls-2" d="m247.58,167.41V21.32h40.18c10.51,0,18.43,2.92,23.74,8.76,5.31,5.84,7.97,14.37,7.97,25.61v68.4c0,13.83-2.42,24.52-7.26,32.04-4.84,7.53-13.32,11.29-25.44,11.29h-39.18Zm29.38-25.82h5.06c5.37,0,8.05-2.6,8.05-7.8V58.43c0-4.87-.65-8.01-1.95-9.42-1.3-1.41-3.94-2.12-7.93-2.12h-3.24v94.71Z"/>
    <path class="cls-2" d="m341.62,167.41V21.32h58.44v28.22h-28.72v28.47h27.56v27.48h-27.56v33.45h30.63v28.47h-60.35Z"/>
    <path class="cls-2" d="m421.79,167.41V21.32h44.82c7.47,0,13.12,1.7,16.93,5.1s6.38,8.16,7.68,14.28c1.3,6.12,1.95,13.3,1.95,21.54s-1.01,14.33-3.03,19.09c-2.02,4.76-5.82,8.05-11.41,9.88,4.59.94,7.82,3.22,9.67,6.85,1.85,3.62,2.78,8.31,2.78,14.07v55.28h-28.8v-57.19c0-4.26-.87-6.9-2.61-7.93-1.74-1.02-4.55-1.54-8.43-1.54v66.66h-29.55Zm29.72-91.97h7.06c4.04,0,6.06-4.4,6.06-13.2,0-5.7-.44-9.43-1.33-11.21-.89-1.77-2.55-2.66-4.98-2.66h-6.81v27.06Z"/>
    <path class="cls-2" d="m513.01,167.41V21.32h30.05l13.45,69.98V21.32h28.22v146.09h-28.55l-14.61-73.05v73.05h-28.55Z"/>
  </g>
</svg>