<?xml version="1.0" encoding="UTF-8"?>
<svg id="Layer_1" data-name="Layer 1" xmlns="http://www.w3.org/2000/svg" viewBox="0 0 592.36 194.09">
  <defs>
    <style>
      .cls-1 {
        fill: none;
        stroke: #fff;
        stroke-miterlimit: 10;
        stroke-width: 2px;
      }

      .cls-2 {
        fill: #fff;
        stroke-width: 0px;
      }
    </style>
  </defs>
  <g>
    <path class="cls-1" d="m69.16,177.68c-13.34,0-22.95-3.32-28.85-9.96s-8.84-17.21-8.84-31.71v-14.28h28.89v18.26c0,3.38.51,6.02,1.54,7.93,1.02,1.91,2.81,2.86,5.35,2.86s4.5-.77,5.52-2.32c1.02-1.55,1.54-4.09,1.54-7.64,0-4.48-.44-8.23-1.33-11.25-.89-3.02-2.42-5.89-4.61-8.63-2.19-2.74-5.22-5.94-9.09-9.59l-13.12-12.45c-9.79-9.24-14.69-19.81-14.69-31.71s2.89-21.94,8.67-28.47c5.78-6.53,14.15-9.79,25.11-9.79,13.39,0,22.9,3.57,28.51,10.71,5.62,7.14,8.43,17.99,8.43,32.54h-29.72v-10.04c0-1.99-.57-3.54-1.7-4.65-1.13-1.11-2.67-1.66-4.61-1.66-2.32,0-4.03.65-5.1,1.95-1.08,1.3-1.62,2.98-1.62,5.02s.55,4.26,1.66,6.64c1.11,2.38,3.29,5.12,6.56,8.22l16.85,16.19c3.37,3.21,6.47,6.6,9.3,10.17s5.09,7.72,6.81,12.45c1.71,4.73,2.57,10.5,2.57,17.31,0,13.72-2.53,24.47-7.6,32.25-5.06,7.78-13.88,11.66-26.44,11.66Z"/>
    <path class="cls-1" d="m135.64,176.35V58.31h-17.35v-28.06h63.92v28.06h-17.35v118.04h-29.22Z"/>
    <path class="cls-1" d="m218.22,176.35v-48.06l-23.33-98.03h28.97l8.13,49.47,8.13-49.47h28.89l-23.24,98.03v48.06h-27.56Z"/>
    <path class="cls-1" d="m286.61,176.35V30.26h29.22v121.19h30.05v24.9h-59.27Z"/>
    <path class="cls-1" d="m363.05,176.35V30.26h28.22v146.09h-28.22Z"/>
    <path class="cls-1" d="m447.79,177.68c-13.34,0-22.95-3.32-28.85-9.96s-8.84-17.21-8.84-31.71v-14.28h28.89v18.26c0,3.38.51,6.02,1.54,7.93,1.02,1.91,2.81,2.86,5.35,2.86s4.5-.77,5.52-2.32c1.02-1.55,1.54-4.09,1.54-7.64,0-4.48-.44-8.23-1.33-11.25-.89-3.02-2.42-5.89-4.61-8.63-2.19-2.74-5.22-5.94-9.09-9.59l-13.12-12.45c-9.79-9.24-14.69-19.81-14.69-31.71s2.89-21.94,8.67-28.47c5.78-6.53,14.15-9.79,25.11-9.79,13.39,0,22.9,3.57,28.51,10.71,5.62,7.14,8.43,17.99,8.43,32.54h-29.72v-10.04c0-1.99-.57-3.54-1.7-4.65-1.13-1.11-2.67-1.66-4.61-1.66-2.32,0-4.03.65-5.1,1.95-1.08,1.3-1.62,2.98-1.62,5.02s.55,4.26,1.66,6.64c1.11,2.38,3.29,5.12,6.56,8.22l16.85,16.19c3.37,3.21,6.47,6.6,9.3,10.17s5.09,7.72,6.81,12.45c1.71,4.73,2.57,10.5,2.57,17.31,0,13.72-2.53,24.47-7.6,32.25-5.06,7.78-13.88,11.66-26.44,11.66Z"/>
    <path class="cls-1" d="m501.73,176.35V30.26h29.05v52.21h13.78V30.26h29.05v146.09h-29.05v-66.24h-13.78v66.24h-29.05Z"/>
  </g>
  <g>
    <path class="cls-2" d="m56.42,165.16c-13.34,0-22.95-3.32-28.85-9.96s-8.84-17.21-8.84-31.71v-14.28h28.89v18.26c0,3.38.51,6.02,1.54,7.93,1.02,1.91,2.81,2.86,5.35,2.86s4.5-.77,5.52-2.32c1.02-1.55,1.54-4.09,1.54-7.64,0-4.48-.44-8.23-1.33-11.25-.89-3.02-2.42-5.89-4.61-8.63-2.19-2.74-5.22-5.94-9.09-9.59l-13.12-12.45c-9.79-9.24-14.69-19.81-14.69-31.71s2.89-21.94,8.67-28.47c5.78-6.53,14.15-9.79,25.11-9.79,13.39,0,22.9,3.57,28.51,10.71,5.62,7.14,8.43,17.99,8.43,32.54h-29.72v-10.04c0-1.99-.57-3.54-1.7-4.65-1.13-1.11-2.67-1.66-4.61-1.66-2.32,0-4.03.65-5.1,1.95-1.08,1.3-1.62,2.98-1.62,5.02s.55,4.26,1.66,6.64c1.11,2.38,3.29,5.12,6.56,8.22l16.85,16.19c3.37,3.21,6.47,6.6,9.3,10.17s5.09,7.72,6.81,12.45c1.71,4.73,2.57,10.5,2.57,17.31,0,13.72-2.53,24.47-7.6,32.25-5.06,7.78-13.88,11.66-26.44,11.66Z"/>
    <path class="cls-2" d="m122.9,163.83V45.79h-17.35v-28.06h63.92v28.06h-17.35v118.04h-29.22Z"/>
    <path class="cls-2" d="m205.49,163.83v-48.06l-23.33-98.03h28.97l8.13,49.47,8.13-49.47h28.89l-23.24,98.03v48.06h-27.56Z"/>
    <path class="cls-2" d="m273.88,163.83V17.74h29.22v121.19h30.05v24.9h-59.27Z"/>
    <path class="cls-2" d="m350.32,163.83V17.74h28.22v146.09h-28.22Z"/>
    <path class="cls-2" d="m435.06,165.16c-13.34,0-22.95-3.32-28.85-9.96s-8.84-17.21-8.84-31.71v-14.28h28.89v18.26c0,3.38.51,6.02,1.54,7.93,1.02,1.91,2.81,2.86,5.35,2.86s4.5-.77,5.52-2.32c1.02-1.55,1.54-4.09,1.54-7.64,0-4.48-.44-8.23-1.33-11.25-.89-3.02-2.42-5.89-4.61-8.63-2.19-2.74-5.22-5.94-9.09-9.59l-13.12-12.45c-9.79-9.24-14.69-19.81-14.69-31.71s2.89-21.94,8.67-28.47c5.78-6.53,14.15-9.79,25.11-9.79,13.39,0,22.9,3.57,28.51,10.71,5.62,7.14,8.43,17.99,8.43,32.54h-29.72v-10.04c0-1.99-.57-3.54-1.7-4.65-1.13-1.11-2.67-1.66-4.61-1.66-2.32,0-4.03.65-5.1,1.95-1.08,1.3-1.62,2.98-1.62,5.02s.55,4.26,1.66,6.64c1.11,2.38,3.29,5.12,6.56,8.22l16.85,16.19c3.37,3.21,6.47,6.6,9.3,10.17s5.09,7.72,6.81,12.45c1.71,4.73,2.57,10.5,2.57,17.31,0,13.72-2.53,24.47-7.6,32.25-5.06,7.78-13.88,11.66-26.44,11.66Z"/>
    <path class="cls-2" d="m489,163.83V17.74h29.05v52.21h13.78V17.74h29.05v146.09h-29.05v-66.24h-13.78v66.24h-29.05Z"/>
  </g>
</svg>