<?xml version="1.0" encoding="UTF-8"?>
<svg id="Layer_1" data-name="Layer 1" xmlns="http://www.w3.org/2000/svg" viewBox="0 0 565.04 187.83">
  <defs>
    <style>
      .cls-1 {
        fill: none;
        stroke: #fff;
        stroke-miterlimit: 10;
        stroke-width: 2px;
      }

      .cls-2 {
        fill: #fff;
        stroke-width: 0px;
      }
    </style>
  </defs>
  <g>
    <path class="cls-1" d="m50.72,173.22V55.18h-17.35v-28.06h63.92v28.06h-17.35v118.04h-29.22Z"/>
    <path class="cls-1" d="m115.62,173.22V27.13h44.82c7.47,0,13.12,1.7,16.93,5.1,3.82,3.4,6.38,8.16,7.68,14.28,1.3,6.12,1.95,13.3,1.95,21.54s-1.01,14.33-3.03,19.09c-2.02,4.76-5.82,8.05-11.41,9.88,4.59.94,7.82,3.22,9.67,6.85,1.85,3.62,2.78,8.31,2.78,14.07v55.28h-28.8v-57.19c0-4.26-.87-6.9-2.61-7.93-1.74-1.02-4.55-1.54-8.43-1.54v66.66h-29.55Zm29.72-91.97h7.06c4.04,0,6.06-4.4,6.06-13.2,0-5.7-.44-9.43-1.33-11.21-.89-1.77-2.55-2.66-4.98-2.66h-6.81v27.06Z"/>
    <path class="cls-1" d="m206.84,173.22V27.13h58.44v28.22h-28.72v28.47h27.56v27.48h-27.56v33.45h30.63v28.47h-60.35Z"/>
    <path class="cls-1" d="m287.02,173.22V27.13h30.05l13.45,69.98V27.13h28.22v146.09h-28.55l-14.61-73.05v73.05h-28.55Z"/>
    <path class="cls-1" d="m381.88,173.22V27.13h40.18c10.51,0,18.43,2.92,23.74,8.76,5.31,5.84,7.97,14.37,7.97,25.61v68.4c0,13.83-2.42,24.52-7.26,32.04-4.84,7.53-13.32,11.29-25.44,11.29h-39.18Zm29.38-25.82h5.06c5.37,0,8.05-2.6,8.05-7.8v-75.37c0-4.87-.65-8.01-1.95-9.42-1.3-1.41-3.94-2.12-7.93-2.12h-3.24v94.71Z"/>
    <path class="cls-1" d="m493.6,173.22v-48.06l-23.33-98.03h28.97l8.13,49.47,8.13-49.47h28.89l-23.24,98.03v48.06h-27.56Z"/>
  </g>
  <g>
    <path class="cls-2" d="m37.99,160.7V42.66h-17.35V14.61h63.92v28.06h-17.35v118.04h-29.22Z"/>
    <path class="cls-2" d="m102.89,160.7V14.61h44.82c7.47,0,13.12,1.7,16.93,5.1s6.38,8.16,7.68,14.28c1.3,6.12,1.95,13.3,1.95,21.54s-1.01,14.33-3.03,19.09c-2.02,4.76-5.82,8.05-11.41,9.88,4.59.94,7.82,3.22,9.67,6.85,1.85,3.62,2.78,8.31,2.78,14.07v55.28h-28.8v-57.19c0-4.26-.87-6.9-2.61-7.93-1.74-1.02-4.55-1.54-8.43-1.54v66.66h-29.55Zm29.72-91.97h7.06c4.04,0,6.06-4.4,6.06-13.2,0-5.7-.44-9.43-1.33-11.21-.89-1.77-2.55-2.66-4.98-2.66h-6.81v27.06Z"/>
    <path class="cls-2" d="m194.11,160.7V14.61h58.44v28.22h-28.72v28.47h27.56v27.48h-27.56v33.45h30.63v28.47h-60.35Z"/>
    <path class="cls-2" d="m274.28,160.7V14.61h30.05l13.45,69.98V14.61h28.22v146.09h-28.55l-14.61-73.05v73.05h-28.55Z"/>
    <path class="cls-2" d="m369.15,160.7V14.61h40.18c10.51,0,18.43,2.92,23.74,8.76,5.31,5.84,7.97,14.37,7.97,25.61v68.4c0,13.83-2.42,24.52-7.26,32.04-4.84,7.53-13.32,11.29-25.44,11.29h-39.18Zm29.38-25.82h5.06c5.37,0,8.05-2.6,8.05-7.8V51.71c0-4.87-.65-8.01-1.95-9.42-1.3-1.41-3.94-2.12-7.93-2.12h-3.24v94.71Z"/>
    <path class="cls-2" d="m480.87,160.7v-48.06l-23.33-98.03h28.97l8.13,49.47,8.13-49.47h28.89l-23.24,98.03v48.06h-27.56Z"/>
  </g>
</svg>