<?xml version="1.0" encoding="UTF-8"?>
<svg id="Layer_1" data-name="Layer 1" xmlns="http://www.w3.org/2000/svg" viewBox="0 0 536.33 186.26">
  <defs>
    <style>
      .cls-1 {
        stroke-width: 0px;
      }

      .cls-2 {
        fill: none;
        stroke: #fff;
        stroke-miterlimit: 10;
        stroke-width: 2px;
      }
    </style>
  </defs>
  <g>
    <path class="cls-2" d="m69.44,166.67c-12.17,0-21.14-3.42-26.89-10.25-5.76-6.83-8.63-16.89-8.63-30.17V19.25h28.39v105.83c0,2.44.14,4.77.42,7.01.28,2.24.91,4.08,1.91,5.52,1,1.44,2.6,2.16,4.81,2.16s3.9-.71,4.9-2.12,1.62-3.25,1.87-5.52c.25-2.27.37-4.62.37-7.06V19.25h28.39v107c0,13.28-2.88,23.34-8.63,30.17-5.76,6.83-14.72,10.25-26.89,10.25Z"/>
    <path class="cls-2" d="m126.37,165.34V19.25h30.05l13.45,69.98V19.25h28.22v146.09h-28.55l-14.61-73.05v73.05h-28.55Z"/>
    <path class="cls-2" d="m219.91,165.34V19.25h28.22v146.09h-28.22Z"/>
    <path class="cls-2" d="m334.54,180.87l-23.24-15.27c-2.66.72-5.4,1.08-8.22,1.08-11.4,0-20.1-3.38-26.11-10.13-6.01-6.75-9.01-16.6-9.01-29.55V56.35c0-12.56,3.08-22.11,9.26-28.64,6.17-6.53,15.09-9.79,26.77-9.79s20.6,3.27,26.77,9.79c6.17,6.53,9.26,16.08,9.26,28.64v70.64c0,12.06-2.71,21.55-8.13,28.47l12.53,7.97-9.88,17.43Zm-30.55-41.09c2.1,0,3.61-.77,4.52-2.32.91-1.55,1.49-3.46,1.74-5.73.25-2.27.37-4.45.37-6.56V56.85c0-3.1-.43-5.88-1.29-8.34-.86-2.46-2.7-3.69-5.52-3.69s-4.76,1.2-5.64,3.61c-.89,2.41-1.33,5.19-1.33,8.34v68.98c0,1.94.12,4,.37,6.18.25,2.19.87,4.04,1.87,5.56,1,1.52,2.63,2.28,4.9,2.28Z"/>
    <path class="cls-2" d="m397.86,166.67c-12.17,0-21.14-3.42-26.89-10.25-5.76-6.83-8.63-16.89-8.63-30.17V19.25h28.39v105.83c0,2.44.14,4.77.42,7.01.28,2.24.91,4.08,1.91,5.52,1,1.44,2.6,2.16,4.81,2.16s3.9-.71,4.9-2.12,1.62-3.25,1.87-5.52c.25-2.27.37-4.62.37-7.06V19.25h28.39v107c0,13.28-2.88,23.34-8.63,30.17-5.76,6.83-14.72,10.25-26.89,10.25Z"/>
    <path class="cls-2" d="m454.8,165.34V19.25h58.44v28.22h-28.72v28.47h27.56v27.48h-27.56v33.45h30.63v28.47h-60.35Z"/>
  </g>
  <g>
    <path class="cls-1" d="m56.71,154.15c-12.17,0-21.14-3.42-26.89-10.25-5.76-6.83-8.63-16.89-8.63-30.17V6.73h28.39v105.83c0,2.44.14,4.77.42,7.01.28,2.24.91,4.08,1.91,5.52,1,1.44,2.6,2.16,4.81,2.16s3.9-.71,4.9-2.12,1.62-3.25,1.87-5.52c.25-2.27.37-4.62.37-7.06V6.73h28.39v107c0,13.28-2.88,23.34-8.63,30.17-5.76,6.83-14.72,10.25-26.89,10.25Z"/>
    <path class="cls-1" d="m113.64,152.82V6.73h30.05l13.45,69.98V6.73h28.22v146.09h-28.55l-14.61-73.05v73.05h-28.55Z"/>
    <path class="cls-1" d="m207.18,152.82V6.73h28.22v146.09h-28.22Z"/>
    <path class="cls-1" d="m321.81,168.34l-23.24-15.27c-2.66.72-5.4,1.08-8.22,1.08-11.4,0-20.1-3.38-26.11-10.13-6.01-6.75-9.01-16.6-9.01-29.55V43.83c0-12.56,3.08-22.11,9.26-28.64,6.17-6.53,15.09-9.79,26.77-9.79s20.6,3.27,26.77,9.79c6.17,6.53,9.26,16.08,9.26,28.64v70.64c0,12.06-2.71,21.55-8.13,28.47l12.53,7.97-9.88,17.43Zm-30.55-41.09c2.1,0,3.61-.77,4.52-2.32.91-1.55,1.49-3.46,1.74-5.73.25-2.27.37-4.45.37-6.56V44.33c0-3.1-.43-5.88-1.29-8.34-.86-2.46-2.7-3.69-5.52-3.69s-4.76,1.2-5.64,3.61c-.89,2.41-1.33,5.19-1.33,8.34v68.98c0,1.94.12,4,.37,6.18.25,2.19.87,4.04,1.87,5.56,1,1.52,2.63,2.28,4.9,2.28Z"/>
    <path class="cls-1" d="m385.13,154.15c-12.17,0-21.14-3.42-26.89-10.25-5.76-6.83-8.63-16.89-8.63-30.17V6.73h28.39v105.83c0,2.44.14,4.77.42,7.01.28,2.24.91,4.08,1.91,5.52,1,1.44,2.6,2.16,4.81,2.16s3.9-.71,4.9-2.12,1.62-3.25,1.87-5.52c.25-2.27.37-4.62.37-7.06V6.73h28.39v107c0,13.28-2.88,23.34-8.63,30.17-5.76,6.83-14.72,10.25-26.89,10.25Z"/>
    <path class="cls-1" d="m442.06,152.82V6.73h58.44v28.22h-28.72v28.47h27.56v27.48h-27.56v33.45h30.63v28.47h-60.35Z"/>
  </g>
</svg>